# xmcd
#
# Track frame offsets: 
#        150
#        13397
#        25552
#        36662
#        46195
#        58767
#        70435
#        81317
#        92930
#        103970
#        115090
#        126907
#        137707
#        149812
#        161475
#        173415
#        184842
#        194950
#        204202
#        214135
#        223735
#        234245
#        245577
#        256832
#        268105
#        278790
#        289830
#        300385
#
# Disc length: 4159 seconds
#
# Revision: 0
# Processed by: cddbd v1.5.1PL0 Copyright (c) Steve Scherf et al.
# Submitted via: ExactAudioCopy v0.95a4
#
DISCID=b6103d1c
DTITLE=Ole Rasmussen - Sleepy Eyed John
DYEAR=1900
DGENRE=Country
TTITLE0=Somewhere In San Antone
TTITLE1=Sleepy Eyed John
TTITLE2=Rockaway (instrumental)
TTITLE3=I'm Still Bettin' On Love
TTITLE4=Spanish Polka (instrumental)
TTITLE5=We're Gonna Go Fishin' (Next Saturday Night)
TTITLE6=It Must Be Love
TTITLE7=My Conscience Is Clear
TTITLE8=Gonna See My Sunday Baby Saturday Night
TTITLE9=Which-A-Way Will You Go
TTITLE10=Straighten Out Your Troubles (With The Lord)
TTITLE11=The Sandhills Of Nebraska
TTITLE12=You Were In My Dream Last Night
TTITLE13=Country Weddin' Day
TTITLE14=Ramblin' Blues
TTITLE15=Half A Love Affair
TTITLE16=In The Mood (instrumental)
TTITLE17=Old Love Of Yesterday
TTITLE18=Everybody Thinks You're An Angel
TTITLE19=Something From Heaven
TTITLE20=Did The Man In The Moon Come From Texas
TTITLE21=C-Jam Blues (instrumental)
TTITLE22=New Star Rag (instrumental)
TTITLE23=Tuxedo Junction
TTITLE24=Charleston Alley (instrumental)
TTITLE25=Careful Now
TTITLE26=Jersey Bounce (instrumental)
TTITLE27=My Mary
EXTD=
EXTT0=
EXTT1=
EXTT2=
EXTT3=
EXTT4=
EXTT5=
EXTT6=
EXTT7=
EXTT8=
EXTT9=
EXTT10=
EXTT11=
EXTT12=
EXTT13=
EXTT14=
EXTT15=
EXTT16=
EXTT17=
EXTT18=
EXTT19=
EXTT20=
EXTT21=
EXTT22=
EXTT23=
EXTT24=
EXTT25=
EXTT26=
EXTT27=
PLAYORDER=
